<svg width="32" height="32" viewBox="0 0 32 32" fill="none" xmlns="http://www.w3.org/2000/svg">
<path d="M7.72913 0.604649C8.19604 1.25343 8.04464 2.15505 7.39095 2.61847L2.30008 6.22755C1.64639 6.69097 0.737963 6.5407 0.271044 5.89191C-0.195875 5.24312 -0.0444697 4.34151 0.609217 3.87809L5.70009 0.269012C6.35378 -0.194406 7.26221 -0.0441363 7.72913 0.604649Z" fill="#868D43"/>
<path fill-rule="evenodd" clip-rule="evenodd" d="M1.21235 17.3231C1.21235 9.21723 7.83303 2.64619 16.0002 2.64619C24.1672 2.64619 30.7879 9.21723 30.7879 17.3231C30.7879 25.4289 24.1672 32 16.0002 32C7.83303 32 1.21235 25.4289 1.21235 17.3231ZM17.2797 9.63893C17.2798 8.84163 16.6286 8.19522 15.8253 8.19514C15.022 8.19505 14.3707 8.84132 14.3706 9.63861L14.3698 17.5849C14.3697 17.9679 14.523 18.3351 14.7958 18.6059L20.4483 24.216C21.0163 24.7798 21.9373 24.7798 22.5053 24.216C23.0734 23.6523 23.0734 22.7382 22.5053 22.1744L17.2789 16.9872L17.2797 9.63893Z" fill="#868D43"/>
<path d="M26.2999 0.269012C25.6462 -0.194406 24.7378 -0.0441363 24.2709 0.604649C23.804 1.25343 23.9554 2.15505 24.609 2.61847L29.6999 6.22755C30.3536 6.69097 31.262 6.5407 31.729 5.89191C32.1959 5.24312 32.0445 4.34151 31.3908 3.87809L26.2999 0.269012Z" fill="#868D43"/>
</svg>
