<svg width="32" height="29" viewBox="0 0 32 29" fill="none" xmlns="http://www.w3.org/2000/svg">
<path fill-rule="evenodd" clip-rule="evenodd" d="M11.4286 1.52287C11.4286 0.681813 12.1108 0 12.9524 0H19.0476C19.8892 0 20.5714 0.681813 20.5714 1.52287V6.09152H30.4762C31.3178 6.09152 32 6.77333 32 7.61439V13.7059C32 14.5469 31.3178 15.2287 30.4762 15.2287H29.7143V27.4771C29.7143 28.3182 29.0321 29 28.1905 29H3.80952C2.96795 29 2.28571 28.3182 2.28571 27.4771V15.2287H1.52381C0.682233 15.2287 0 14.5469 0 13.7059V7.61439C0 6.77333 0.682233 6.09152 1.52381 6.09152H11.4286V1.52287ZM14.4762 3.04574V7.61439C14.4762 8.45545 13.794 9.13726 12.9524 9.13726H3.04762V12.183H28.9524V9.13726H19.0476C18.206 9.13726 17.5238 8.45545 17.5238 7.61439V3.04574H14.4762ZM16 21.3083C16.8416 21.3083 17.5238 21.9901 17.5238 22.8312V25.9543H14.4762V22.8312C14.4762 21.9901 15.1584 21.3083 16 21.3083ZM20.5714 22.8431V25.9543H23.619V22.8431C23.619 22.002 22.9368 21.3202 22.0952 21.3202C21.2537 21.3202 20.5714 22.002 20.5714 22.8431ZM8.38095 25.9543H11.4286V22.8431C11.4286 22.002 10.7463 21.3202 9.90476 21.3202C9.06319 21.3202 8.38095 22.002 8.38095 22.8431V25.9543Z" fill="#868D43"/>
</svg>
