<svg width="22" height="32" viewBox="0 0 22 32" fill="none" xmlns="http://www.w3.org/2000/svg">
<path fill-rule="evenodd" clip-rule="evenodd" d="M7.33333 0C8.14335 0 8.8 0.651222 8.8 1.45455V5.81818H11.7333V1.45455C11.7333 0.651222 12.39 0 13.2 0C14.01 0 14.6667 0.651222 14.6667 1.45455V5.81818H18.8612C19.7847 5.81818 20.5333 6.5606 20.5333 7.47651V16C20.5333 21.1294 16.7087 25.3729 11.7333 26.0787V28.3636C11.7333 28.7653 12.0616 29.0909 12.4667 29.0909H20.5333C21.3434 29.0909 22 29.7421 22 30.5455C22 31.3488 21.3434 32 20.5333 32H12.4667C10.4416 32 8.8 30.372 8.8 28.3636V26.0787C3.82464 25.3729 0 21.1294 0 16V7.47651C0 6.5606 0.748609 5.81818 1.67215 5.81818H5.86667V1.45455C5.86667 0.651222 6.52332 0 7.33333 0ZM10.2667 23.2727C14.3167 23.2727 17.6 20.0166 17.6 16V8.72727H2.93333V16C2.93333 20.0166 6.21659 23.2727 10.2667 23.2727Z" fill="#868D43"/>
<path fill-rule="evenodd" clip-rule="evenodd" d="M17.6 16C17.6 20.0166 14.3167 23.2727 10.2667 23.2727C6.21659 23.2727 2.93333 20.0166 2.93333 16V8.72727H17.6V16ZM7.33333 18.1818C7.33333 17.3785 7.98998 16.7273 8.8 16.7273H11.7333C12.5434 16.7273 13.2 17.3785 13.2 18.1818C13.2 18.9851 12.5434 19.6364 11.7333 19.6364H8.8C7.98998 19.6364 7.33333 18.9851 7.33333 18.1818Z" fill="#868D43"/>
</svg>
