<svg width="32" height="32" viewBox="0 0 32 32" fill="none" xmlns="http://www.w3.org/2000/svg">
<path d="M17.4545 1.45453C17.4545 0.651213 16.8033 0 16 0C15.1967 0 14.5455 0.651213 14.5455 1.45453V6.54537C14.5455 7.34868 15.1967 7.99989 16 7.99989C16.8033 7.99989 17.4545 7.34868 17.4545 6.54537V1.45453Z" fill="#868D43"/>
<path d="M23.2727 3.63631C23.2727 2.833 22.6215 2.18179 21.8182 2.18179C21.0149 2.18179 20.3636 2.833 20.3636 3.63631V6.54537C20.3636 7.34868 21.0149 7.99989 21.8182 7.99989C22.6215 7.99989 23.2727 7.34868 23.2727 6.54537V3.63631Z" fill="#868D43"/>
<path d="M10.1818 2.18179C10.9851 2.18179 11.6364 2.833 11.6364 3.63631V6.54537C11.6364 7.34868 10.9851 7.99989 10.1818 7.99989C9.3785 7.99989 8.72727 7.34868 8.72727 6.54537V3.63631C8.72727 2.833 9.3785 2.18179 10.1818 2.18179Z" fill="#868D43"/>
<path fill-rule="evenodd" clip-rule="evenodd" d="M0 10.9089C0 10.1056 0.651222 9.45442 1.45455 9.45442H30.5455C31.3488 9.45442 32 10.1056 32 10.9089C32 15.2483 29.4534 18.9801 25.7179 21.3172L27.2289 26.4679C27.2353 26.4882 27.2413 26.5087 27.2469 26.5294L28.3048 30.1357C28.531 30.9065 28.0894 31.7147 27.3186 31.9408C26.5477 32.1669 25.7395 31.7254 25.5134 30.9545L24.7532 28.3633H7.24684L6.48666 30.9545C6.26053 31.7254 5.45233 32.1669 4.68149 31.9408C3.91065 31.7147 3.46907 30.9065 3.69521 30.1357L4.75249 26.5316C4.75842 26.5094 4.76487 26.4875 4.77181 26.4658L6.28219 21.3172C2.54661 18.9801 0 15.2483 0 10.9089ZM16 23.9997C18.5324 23.9997 20.9376 23.5195 23.0791 22.6564L23.8998 25.4542H8.10024L8.92099 22.6564C11.0624 23.5195 13.4676 23.9997 16 23.9997ZM13.0909 15.2725C12.2876 15.2725 11.6364 15.9237 11.6364 16.727C11.6364 17.5304 12.2876 18.1816 13.0909 18.1816H18.9091C19.7124 18.1816 20.3636 17.5304 20.3636 16.727C20.3636 15.9237 19.7124 15.2725 18.9091 15.2725H13.0909Z" fill="#868D43"/>
</svg>
