<svg width="32" height="32" viewBox="0 0 32 32" fill="none" xmlns="http://www.w3.org/2000/svg">
<path d="M27.3137 4.68629C21.0653 -1.5621 10.9347 -1.56209 4.68629 4.68628C-1.56209 10.9347 -1.5621 21.0653 4.68629 27.3137C5.25432 27.8817 6.17529 27.8817 6.74333 27.3137C7.31136 26.7457 7.31136 25.8247 6.74333 25.2566C1.63101 20.1443 1.63101 11.8557 6.74332 6.74333C11.8557 1.63102 20.1443 1.63102 25.2567 6.74333C30.369 11.8557 30.369 20.1443 25.2567 25.2566C24.6886 25.8247 24.6886 26.7456 25.2567 27.3137C25.8247 27.8817 26.7457 27.8817 27.3137 27.3137C33.5621 21.0653 33.5621 10.9347 27.3137 4.68629Z" fill="#868D43"/>
<path d="M23.1997 8.80035C19.2234 4.8241 12.7766 4.8241 8.80036 8.80035C4.8241 12.7766 4.8241 19.2234 8.80036 23.1996C9.36839 23.7677 10.2894 23.7677 10.8574 23.1996C11.4254 22.6316 11.4254 21.7106 10.8574 21.1426C8.01721 18.3024 8.01721 13.6976 10.8574 10.8574C13.6976 8.01721 18.3024 8.01721 21.1426 10.8574C23.9828 13.6976 23.9828 18.3024 21.1426 21.1426C20.5746 21.7106 20.5746 22.6316 21.1426 23.1996C21.7107 23.7677 22.6316 23.7677 23.1997 23.1996C27.1759 19.2234 27.1759 12.7766 23.1997 8.80035Z" fill="#868D43"/>
<path d="M11.6364 16C11.6364 13.5901 13.5901 11.6364 16 11.6364C18.41 11.6364 20.3636 13.5901 20.3636 16C20.3636 17.8999 19.1494 19.5163 17.4546 20.1153V29.0909H18.9091C19.7124 29.0909 20.3636 29.7421 20.3636 30.5455C20.3636 31.3488 19.7124 32 18.9091 32H13.0909C12.2876 32 11.6364 31.3488 11.6364 30.5455C11.6364 29.7421 12.2876 29.0909 13.0909 29.0909H14.5455V20.1153C12.8506 19.5163 11.6364 17.8999 11.6364 16Z" fill="#868D43"/>
</svg>
