<svg width="31" height="32" viewBox="0 0 31 32" fill="none" xmlns="http://www.w3.org/2000/svg">
<path fill-rule="evenodd" clip-rule="evenodd" d="M6.97501 0C6.52805 0 6.10285 0.194311 5.80852 0.533066L0.383527 6.77697C0.04992 7.16093 -0.0633908 7.66306 0.0332234 8.12668C0.0113362 8.27638 0 8.42954 0 8.58537V28.878C0 30.6023 1.38792 32 3.1 32H27.9C29.612 32 31 30.6023 31 28.878V8.58537C31 8.42958 30.9886 8.27646 30.9668 8.12679C31.0634 7.66314 30.9501 7.16097 30.6165 6.77697L25.1915 0.533066C24.8972 0.194311 24.472 0 24.025 0H6.97501ZM25.356 5.46341L23.3216 3.12195H7.67835L5.64398 5.46341H25.356ZM9.26101 16.3963C9.26101 15.5342 9.95497 14.8354 10.811 14.8354H20.111C20.967 14.8354 21.661 15.5342 21.661 16.3963C21.661 17.2584 20.967 17.9573 20.111 17.9573H10.811C9.95497 17.9573 9.26101 17.2584 9.26101 16.3963Z" fill="#868D43"/>
</svg>
